<svg width="48" height="48" viewBox="0 0 48 48" fill="none" xmlns="http://www.w3.org/2000/svg">
<path d="M8 27V28M8 28L9.84667 27.538C11.2363 27.1907 12.7043 27.352 13.9853 27.9927L14.0573 28.0287C15.3125 28.6562 16.748 28.8239 18.114 28.5027L20.1873 28.0147C19.9353 30.341 19.9364 32.6879 20.1907 35.014L18.1147 35.502C16.7485 35.8236 15.3128 35.6561 14.0573 35.0287L13.9853 34.9927C12.7043 34.352 11.2363 34.1907 9.84667 34.538L8 35M8 28V35M8 39V35" stroke="white" stroke-width="1.5" stroke-linecap="round" stroke-linejoin="round"/>
<path d="M39.5 8.5V9.75M39.5 9.75L37.1917 9.1725C35.4547 8.73837 33.6197 8.93996 32.0183 9.74083L31.9283 9.78583C30.3594 10.5703 28.5651 10.7799 26.8575 10.3783L24.2658 9.76833C24.5809 12.6763 24.5795 15.6098 24.2617 18.5175L26.8567 19.1275C28.5644 19.5295 30.359 19.3202 31.9283 18.5358L32.0183 18.4908C33.6197 17.69 35.4547 17.4884 37.1917 17.9225L39.5 18.5M39.5 9.75V18.5M39.5 23.5V18.5" stroke="white" stroke-width="1.5" stroke-linecap="round" stroke-linejoin="round"/>
<path d="M26.4133 21.9628C26.3928 21.6874 26.1528 21.4808 25.8775 21.5014L21.39 21.8367C21.1146 21.8573 20.908 22.0972 20.9286 22.3726C20.9492 22.648 21.1891 22.8545 21.4645 22.8339L25.4534 22.5359L25.7514 26.5248C25.772 26.8001 26.0119 27.0067 26.2873 26.9861C26.5627 26.9656 26.7692 26.7256 26.7486 26.4503L26.4133 21.9628ZM22 26.547L22.3789 26.8732L26.2936 22.3263L25.9147 22L25.5358 21.6738L21.6211 26.2208L22 26.547Z" fill="white" fill-opacity="0.5"/>
</svg>
